Coordinates
version=1
nRows=28
nColumns=33
inDegrees=yes

Units are S.I. units (second, meters, Newtons, ...)
Angles are in degrees.

endheader
time	ground_thorax_rot_x	ground_thorax_rot_y	ground_thorax_rot_z	ground_thorax_tx	ground_thorax_ty	ground_thorax_tz	clav_prot_r	clav_elev_r	scapula_abduction_r	scapula_elevation_r	scapula_upward_rot_r	scapula_winging_r	shoulder_elv_r	plane_of_elev_r	axial_rot_r	elbow_flexion_r	pro_sup_r	wrist_flex_r	wrist_dev_r	clav_prot_l	clav_elev_l	scapula_abduction_l	scapula_elevation_l	scapula_upward_rot_l	scapula_winging_l	shoulder_elv_l	plane_of_elev_l	axial_rot_l	elbow_flexion_l	pro_sup_l	wrist_flex_l	wrist_dev_l	
9.6000	-40.537183	-6.090486	6.315813	-168.028937	879.855917	-9.693907	2.687428	-45.000000	41.160319	-45.000000	4.467474	2050.196460	791.284243	22.544034	-180.000000	1444.537193	-56.376116	23.289533	6.906536	15.898381	38.692248	-39.622375	-45.000000	-44.909618	-2074.190794	-3526.883413	20.494295	-44.400970	1453.910176	-304.659155	4.015620	-21.315115	
9.6100	-40.547142	-5.794852	5.979847	-165.837478	882.623455	-9.725513	2.522950	-45.000000	41.555258	-45.000000	6.112329	2050.259847	791.597888	22.552106	-180.000000	1444.487427	-56.001538	23.407476	6.841284	15.967078	38.726585	-39.974632	-45.000000	-44.838116	-2074.007630	-3526.697006	20.699108	-43.692070	1454.002906	-304.409471	3.897980	-21.261100	
9.6200	-40.569697	-5.496250	5.654483	-163.530278	885.289285	-9.744529	2.352039	-45.000000	41.927755	-45.000000	7.748111	2050.334901	791.886305	22.559029	-180.000000	1444.436948	-55.664741	23.527375	6.768103	16.015089	38.768169	-40.326602	-45.000000	-44.709974	-2073.821769	-3526.516728	20.888283	-42.992921	1454.078614	-304.268008	3.800986	-21.212821	
9.6300	-40.601633	-5.202872	5.341073	-161.109946	887.816915	-9.750436	2.182551	-45.000000	42.279506	-45.000000	9.318852	2050.423435	792.139199	22.579617	-180.000000	1444.388065	-55.416566	23.651737	6.689417	16.033310	38.832679	-40.664425	-45.000000	-44.480604	-2073.625852	-3526.361798	21.063281	-42.353937	1454.129225	-304.249572	3.734986	-21.178727	
9.6400	-40.643680	-4.903577	5.030700	-158.576903	890.169677	-9.741386	2.012675	-45.000000	42.588934	-45.000000	10.797169	2050.532933	792.343210	22.616184	-180.000000	1444.332562	-55.302078	23.786053	6.608929	15.999507	38.922233	-40.983000	-45.000000	-44.114993	-2073.435188	-3526.228475	21.207710	-41.772924	1454.163316	-304.373717	3.706649	-21.172043	
9.6500	-40.693178	-4.610127	4.728013	-155.928905	892.312426	-9.714355	1.840759	-45.000000	42.887625	-45.000000	12.205090	2050.645636	792.509415	22.667948	-180.000000	1444.275106	-55.361199	23.916787	6.543342	15.952343	39.046621	-41.277987	-45.000000	-43.610998	-2073.244741	-3526.136578	21.333483	-41.264728	1454.168019	-304.656842	3.714924	-21.185631	
9.6600	-40.754400	-4.301167	4.412295	-153.162437	894.212097	-9.665623	1.642184	-45.000000	43.198124	-45.000000	13.703311	2050.748600	792.668559	22.696602	-180.000000	1444.222973	-55.617709	24.023465	6.522514	15.928154	39.204619	-41.557796	-45.000000	-42.982365	-2073.079991	-3526.063879	21.424363	-40.788734	1454.153994	-305.128297	3.749719	-21.214298	
9.6700	-40.823525	-3.985820	4.090544	-150.272658	895.839576	-9.591441	1.420118	-45.000000	43.539369	-45.000000	15.305679	2050.825943	792.827568	22.706289	-180.000000	1444.183562	-56.084114	24.100933	6.554880	15.943648	39.396774	-41.828553	-45.000000	-42.252778	-2072.932354	-3526.026958	21.497869	-40.348292	1454.113172	-305.810726	3.812179	-21.252012	
9.6800	-40.902017	-3.659231	3.759933	-147.255620	897.169419	-9.488747	1.167150	-45.000000	43.894190	-45.000000	17.026822	2050.885753	792.981893	22.683885	-180.000000	1444.154071	-56.770061	24.148925	6.646041	15.990269	39.607375	-42.097165	-45.000000	-41.453402	-2072.816104	-3526.010446	21.548917	-39.913094	1454.051560	-306.731115	3.903674	-21.300038	
9.6900	-40.985054	-3.348462	3.449334	-144.108529	898.180879	-9.355751	0.910176	-45.000000	44.239668	-45.000000	18.712679	2050.929936	793.096309	22.663564	-180.000000	1444.129136	-57.690480	24.182616	6.780560	16.041214	39.828937	-42.366076	-45.000000	-40.618502	-2072.709565	-3526.040065	21.603965	-39.490954	1453.948502	-307.901020	4.040183	-21.359836	
9.7000	-41.073480	-3.030358	3.147682	-140.830664	898.857673	-9.192302	0.617754	-45.000000	44.539151	-45.000000	20.399083	2050.979743	793.175741	22.624930	-180.000000	1444.114633	-58.887574	24.193065	6.977780	16.108111	40.054173	-42.649368	-45.000000	-39.769609	-2072.636849	-3526.088249	21.647090	-39.062070	1453.816459	-309.371302	4.224886	-21.435473	
9.7100	-41.160182	-2.717635	2.874533	-137.422929	899.188586	-8.999976	0.304029	-45.000000	44.760289	-45.000000	21.953987	2051.043875	793.193077	22.595365	-180.000000	1444.106142	-60.394149	24.192001	7.227029	16.164781	40.278865	-42.947403	-45.000000	-38.917045	-2072.588764	-3526.172940	21.693203	-38.642812	1453.644478	-311.182034	4.475873	-21.529968	
9.7200	-41.242469	-2.399636	2.620852	-133.888097	899.166746	-8.781916	-0.053511	-45.000000	44.894408	-45.000000	23.409307	2051.129355	793.157033	22.563172	-180.000000	1444.109723	-62.251684	24.167902	7.544500	16.230496	40.496608	-43.260717	-45.000000	-38.073866	-2072.585423	-3526.276926	21.731600	-38.209848	1453.443421	-313.403231	4.800959	-21.643474	
9.7300	-41.317620	-2.097420	2.399508	-130.230114	898.789864	-8.542437	-0.431360	-45.000000	44.964383	-45.000000	24.734592	2051.221632	793.062250	22.534909	-180.000000	1444.125124	-64.456718	24.115901	7.923450	16.301483	40.708286	-43.579561	-44.999999	-37.259389	-2072.617449	-3526.413029	21.776282	-37.760285	1453.196662	-316.066431	5.212182	-21.764451	
9.7400	-41.386284	-1.801507	2.198414	-126.453332	898.059880	-8.286464	-0.843338	-45.000000	44.993593	-45.000000	26.021617	2051.306759	792.930244	22.491444	-180.000000	1444.160472	-66.996534	24.014676	8.373555	16.415127	40.920482	-43.904283	-44.999999	-36.480492	-2072.695141	-3526.567771	21.820225	-37.289573	1452.915063	-319.201792	5.709416	-21.883762	
9.7500	-41.445722	-1.519666	2.011599	-122.562257	896.982966	-8.018925	-1.263634	-45.000000	45.000000	-45.000000	27.223705	2051.367787	792.739295	22.455820	-180.000000	1444.215049	-69.848095	23.879638	8.871445	16.510485	41.124601	-44.214232	-44.999998	-35.708288	-2072.809601	-3526.756460	21.872706	-36.802330	1452.586849	-322.826318	6.313955	-21.989214	
9.7600	-41.494878	-1.277488	1.854597	-118.561141	895.569047	-7.744198	-1.670060	-45.000000	45.000000	-45.000000	28.316214	2051.404692	792.491357	22.422657	-180.000000	1444.286629	-72.942428	23.702236	9.399756	16.591630	41.324189	-44.485750	-44.999996	-34.955733	-2072.964885	-3526.969302	21.932710	-36.334875	1452.228925	-326.855916	7.007995	-22.064755	
9.7700	-41.532539	-1.080583	1.722401	-114.454376	893.831383	-7.465806	-2.044948	-45.000000	45.000000	-45.000000	29.262339	2051.417405	792.171117	22.404834	-180.000000	1444.376808	-76.214665	23.495119	9.935551	16.613450	41.512330	-44.699301	-44.999993	-34.201976	-2073.164151	-3527.207024	22.001181	-35.898557	1451.846396	-331.168369	7.780553	-22.092902	
9.7800	-41.559199	-0.938560	1.624701	-110.246585	891.786064	-7.186402	-2.397988	-45.000000	45.000000	-45.000000	30.097494	2051.418006	791.800960	22.379210	-180.000000	1444.487983	-79.599063	23.239809	10.475007	16.612904	41.697225	-44.850987	-44.999988	-33.466200	-2073.414058	-3527.456725	22.073609	-35.503713	1451.467486	-335.587540	8.586844	-22.056379	
9.7900	-41.574495	-0.854733	1.564615	-105.943573	889.451580	-6.908010	-2.727847	-45.000000	45.000000	-45.000000	30.815831	2051.407825	791.382413	22.348306	-180.000000	1444.617947	-83.027959	22.940789	11.003600	16.602873	41.874957	-44.944451	-44.999979	-32.761364	-2073.718545	-3527.710122	22.145158	-35.151130	1451.109450	-339.919942	9.385159	-21.953172	
9.8000	-41.579853	-0.841451	1.559208	-101.552602	886.848328	-6.632423	-3.024888	-45.000000	45.000000	-45.000000	31.400625	2051.394011	790.924684	22.302226	-180.000000	1444.755156	-86.392180	22.593688	11.502187	16.613263	42.052308	-44.987225	-44.999962	-32.117814	-2074.071578	-3527.959804	22.218745	-34.850006	1450.798141	-343.911091	10.120517	-21.789779	
9.8100	-41.577416	-0.870863	1.582420	-97.083031	883.998271	-6.361516	-3.304266	-45.000000	45.000000	-45.000000	31.886192	2051.369508	790.423706	22.248855	-180.000000	1444.896690	-89.615237	22.217579	11.957950	16.639506	42.225955	-45.000000	-44.999932	-31.522549	-2074.467727	-3528.208340	22.296598	-34.565162	1450.535783	-347.380998	10.769029	-21.581083	
9.8200	-41.570569	-0.924809	1.620293	-92.546404	880.924584	-6.097367	-3.579780	-45.000000	45.000000	-45.000000	32.304825	2051.330555	789.886442	22.186137	-180.000000	1445.037860	-92.644347	21.822663	12.361482	16.674757	42.397287	-45.000000	-44.999878	-30.971215	-2074.892675	-3528.465802	22.392449	-34.242191	1450.318194	-350.225318	11.322789	-21.344151	
9.8300	-41.561196	-0.976870	1.647584	-87.956381	877.651376	-5.841991	-3.866972	-45.000000	45.000000	-45.000000	32.689204	2051.269890	789.310334	22.123062	-180.000000	1445.177530	-95.447751	21.430288	12.708547	16.711949	42.558568	-45.000000	-44.999781	-30.452707	-2075.346679	-3528.732936	22.507818	-33.837792	1450.134971	-352.420906	11.785702	-21.100577	
9.8400	-41.552839	-1.037482	1.677480	-83.328214	874.203320	-5.596848	-4.157995	-45.000000	45.000000	-45.000000	33.032864	2051.192997	788.706785	22.050380	-180.000000	1445.310988	-97.980519	21.046278	12.992858	16.753852	42.712619	-45.000000	-44.999607	-29.983743	-2075.821519	-3529.011944	22.649010	-33.336775	1449.974685	-353.978095	12.159296	-20.866097	
9.8500	-41.545400	-1.085345	1.687661	-78.678302	870.605279	-5.362276	-4.465390	-45.000000	45.000000	-45.000000	33.357073	2051.099679	788.074364	21.976170	-180.000000	1445.439653	-100.219777	20.686854	13.215093	16.779508	42.857368	-45.000000	-44.999296	-29.540706	-2076.317968	-3529.306848	22.816795	-32.719140	1449.823039	-354.955423	12.464470	-20.649499	
9.8600	-41.540349	-1.135390	1.696411	-74.023700	866.882076	-5.137028	-4.775809	-45.000000	45.000000	-45.000000	33.650726	2050.997485	787.427611	21.892375	-180.000000	1445.560821	-102.147302	20.351053	13.375769	16.804193	42.993674	-45.000000	-44.998739	-29.152210	-2076.834540	-3529.611036	23.009521	-31.983494	1449.670212	-355.447768	12.717067	-20.457581	
9.8700	-41.537895	-1.204640	1.725198	-69.381796	863.058585	-4.918301	-5.070831	-45.000000	45.000000	-45.000000	33.884723	2050.893206	786.774560	21.793363	-180.000000	1445.663084	-103.715955	20.036869	13.471863	16.856537	43.126272	-45.000000	-44.997741	-28.842482	-2077.369570	-3529.917824	23.216172	-31.188882	1449.516730	-355.509474	12.912793	-20.293081	
